<svg xmlns="http://www.w3.org/2000/svg" xmlns:svg="http://www.w3.org/2000/svg" width="200" height="200" viewBox="-100 25 380 380"><rect width="190" height="60" x="0" y="112" shape-rendering="crispEdges" style="fill:#e6008d"/><rect width="14" height="14" x="28" y="70" shape-rendering="crispEdges" style="fill:#e6008d"/><rect width="14" height="14" x="0" y="84" shape-rendering="crispEdges" style="fill:#e6008d"/><rect width="14" height="14" x="28" y="84" shape-rendering="crispEdges" style="fill:#e6008d"/><rect width="14" height="14" x="42" y="84" shape-rendering="crispEdges" style="fill:#e6008d"/><rect width="14" height="14" x="70" y="84" shape-rendering="crispEdges" style="fill:#e6008d"/><rect width="14" height="14" x="0" y="98" shape-rendering="crispEdges" style="fill:#e6008d"/><rect width="14" height="14" x="14" y="98" shape-rendering="crispEdges" style="fill:#e6008d"/><rect width="14" height="14" x="28" y="98" shape-rendering="crispEdges" style="fill:#e6008d"/><rect width="14" height="14" x="42" y="98" shape-rendering="crispEdges" style="fill:#e6008d"/><rect width="14" height="14" x="70" y="98" shape-rendering="crispEdges" style="fill:#e6008d"/><rect width="14" height="14" x="98" y="98" shape-rendering="crispEdges" style="fill:#e6008d"/><rect width="190" height="60" x="0" y="186" shape-rendering="crispEdges" style="fill:#8d2089"/><rect width="190" height="60" x="0" y="260" shape-rendering="crispEdges" style="fill:#5f2688"/><rect width="14" height="14" x="148" y="348" shape-rendering="crispEdges" style="fill:#5f2688"/><rect width="14" height="14" x="176" y="334" shape-rendering="crispEdges" style="fill:#5f2688"/><rect width="14" height="14" x="148" y="334" shape-rendering="crispEdges" style="fill:#5f2688"/><rect width="14" height="14" x="134" y="334" shape-rendering="crispEdges" style="fill:#5f2688"/><rect width="14" height="14" x="106" y="334" shape-rendering="crispEdges" style="fill:#5f2688"/><rect width="14" height="14" x="176" y="320" shape-rendering="crispEdges" style="fill:#5f2688"/><rect width="14" height="14" x="162" y="320" shape-rendering="crispEdges" style="fill:#5f2688"/><rect width="14" height="14" x="148" y="320" shape-rendering="crispEdges" style="fill:#5f2688"/><rect width="14" height="14" x="134" y="320" shape-rendering="crispEdges" style="fill:#5f2688"/><rect width="14" height="14" x="106" y="320" shape-rendering="crispEdges" style="fill:#5f2688"/><rect width="14" height="14" x="78" y="320" shape-rendering="crispEdges" style="fill:#5f2688"/></svg>